# xmcd
#
# Track frame offsets:
#	150
#	11263
#	23823
#	33180
#	48768
#	59153
#	69407
#	80616
#	92185
#	102873
#	115663
#	125249
#	144199
#	158941
#	177222
#	189636
#	203558
#	215531
#	229751
#	241919
#	252750
#
# Disc length: 3509 seconds
#
# Revision: 1
# Processed by: cddbd v1.5.2PL0 Copyright (c) Steve Scherf et al.
# Submitted via: audiograbber 1.83.01
#
DISCID=180db315
DTITLE=Kenny Paul - 20 Country Classics
DYEAR=1900
DGENRE=
TTITLE0=Oh Lonesome Me
TTITLE1=Same Way You Came In
TTITLE2=Kiss An Angel
TTITLE3=Daddy Frank
TTITLE4=Lonesome Number One
TTITLE5=Does My Ring Hurt
TTITLE6=Ravishing Ruby
TTITLE7=Little Old Wine Drinker Me
TTITLE8=Daddy Sang Bass
TTITLE9=Story Of My Life
TTITLE10=Going To San Antone
TTITLE11=Old Dogs And Children
TTITLE12=Amarillo
TTITLE13=Farewell Party
TTITLE14=Clayton Delaney
TTITLE15=Love Without End
TTITLE16=Got No Reason
TTITLE17=Fifteen Years Ago
TTITLE18=I've Enjoyed As Much Of This
TTITLE19=Someone I Used To Know
TTITLE20=Promo
EXTD=
EXTT0=
EXTT1=
EXTT2=
EXTT3=
EXTT4=
EXTT5=
EXTT6=
EXTT7=
EXTT8=
EXTT9=
EXTT10=
EXTT11=
EXTT12=
EXTT13=
EXTT14=
EXTT15=
EXTT16=
EXTT17=
EXTT18=
EXTT19=
EXTT20=
PLAYORDER=
